<svg xmlns="http://www.w3.org/2000/svg" viewBox="0 0 101.52 24.01"><defs><style>.cls-1{fill:#00aec7;}.cls-2{fill:none;}</style></defs><title>Vedra-brand identity - logo-1 </title><g id="word"><path class="cls-1" d="M21.63,23.72H14.81a16.14,16.14,0,0,1-1.84,0A3.81,3.81,0,0,1,11.12,23a5.7,5.7,0,0,1-1.74-2.41L0,0H6.9A7.1,7.1,0,0,1,10,.46a5.16,5.16,0,0,1,.8.51,3.83,3.83,0,0,1,.95,1.12c.22.37.38.78.57,1.16,0,.09.23.51.23.51Z"/><path class="cls-1" d="M31.43.84a1.25,1.25,0,0,0-.3-.42A1.48,1.48,0,0,0,29.92,0h-8.3L16.23,11.83H27.05L30.57,4.1s.19-.39.35-.79a12.57,12.57,0,0,0,.57-1.48A1.46,1.46,0,0,0,31.43.84Z"/><path class="cls-1" d="M75.31,9.18V3.69l3.17,0c0,.13,0,11.06,0,16.39a4.15,4.15,0,0,1-.62,2.52,2.91,2.91,0,0,1-2.47,1.14H70c-.22,0-.45,0-.68,0a4.84,4.84,0,0,1-1.26-.09,1.93,1.93,0,0,1-.34-.11,2.63,2.63,0,0,1-.71-.41,2.46,2.46,0,0,1-.55-.61,3.32,3.32,0,0,1-.36-.76,4,4,0,0,1-.16-.91v-.12c-.06-1.43,0-2.87,0-4.3V12.67a3.91,3.91,0,0,1,.59-2.18,2.78,2.78,0,0,1,2.25-1.27c1.81-.07,3.61,0,5.42,0Zm0,2.7H70.43c-1,0-1.3.36-1.31,1.37,0,2.21,0,4.45,0,6.68,0,.86.24,1.06,1.12,1.07,1.33,0,2.64,0,4,0,.72,0,1.1-.25,1.11-1C75.31,17.37,75.3,11.88,75.3,11.88Z"/><path class="cls-1" d="M98.5,14.39c0-.64,0-1.1,0-1.64a.8.8,0,0,0-.75-.8,6.38,6.38,0,0,0-.87-.07c-2.26,0-7.23,0-7.23,0V9.18h8.11a4.36,4.36,0,0,1,2.33.49,2.93,2.93,0,0,1,1.4,2.67c0,2.38,0,4.76,0,7.14a8.82,8.82,0,0,1-.07,1.63,3,3,0,0,1-3.23,2.61H92.57a6.38,6.38,0,0,1-1.08-.13,2.79,2.79,0,0,1-2.36-2.71,34,34,0,0,1,0-3.64,3,3,0,0,1,3.05-2.85c1.9,0,3.89,0,5.83,0Zm0,2.4h-5c-1,0-1.4.35-1.42,1.4q0,.84,0,1.68c0,.93.31,1.13,1.25,1.14h4l.33,0c.55-.09.83-.12.86-.77C98.51,19.07,98.49,18,98.49,16.79Z"/><path class="cls-1" d="M63.25,21v2.72H53.82a3.44,3.44,0,0,1-1.52-.33,2.62,2.62,0,0,1-1.09-1A2.23,2.23,0,0,1,51,21.9a3.75,3.75,0,0,1-.18-.82l0-.36c-.05-1.61,0-3.2,0-4.82,0-1.19,0-2.4,0-3.59a3.83,3.83,0,0,1,.31-1.52,2.59,2.59,0,0,1,.89-1,3.15,3.15,0,0,1,1.4-.5l.29,0c1.22-.06,2.45,0,3.69,0,1,0,2.09,0,3.11,0a2.79,2.79,0,0,1,2.75,2.83c.08,1.32,0,2.66,0,4a.31.31,0,0,1-.06.19.36.36,0,0,1-.18.12l-.09,0L55.35,18c-.39.09-.77.18-1.16.25-.23,0-.33.12-.32.37,0,.56,0,1.12.08,1.68s.33.57.75.63a6.37,6.37,0,0,0,1,.08Zm-3-6.55c0-.58,0-1.13-.1-1.67a.9.9,0,0,0-1-.91c-1.45,0-2.9,0-4.34,0-.59,0-.9.23-.94.8-.06,1.05,0,2.12,0,3.21Z"/><path class="cls-1" d="M35.16,9.18H38a.7.7,0,0,1,.49.2.63.63,0,0,1,.16.26l2.49,7.29c.36,1.07.72,2.14,1.12,3.3.16-.47.3-.86.43-1.26,1.05-3.14,2.08-6.26,3.12-9.4.1-.29.21-.39.56-.39h2.94l-.85,2.3c-1.35,3.65-2.72,7.29-4,10.94a2.27,2.27,0,0,1-1.14,1.4,2.73,2.73,0,0,1-1.83.09,2.2,2.2,0,0,1-1.39-1.44c-.56-1.33-1-2.71-1.52-4.06C37.47,15.43,35.21,9.33,35.16,9.18Z"/><rect class="cls-1" x="81.17" y="12.35" width="3.17" height="11.37"/><rect class="cls-1" x="84.34" y="9.18" width="3.17" height="3.17"/><rect class="cls-2" width="101.52" height="23.72"/></g></svg>